<svg xmlns="http://www.w3.org/2000/svg" width="1600" height="900" viewBox="0 0 1600 900">
  <defs><pattern id="g" width="38" height="38" patternUnits="userSpaceOnUse"><path d="M38 0H0V38" fill="none" stroke="#b9d2ef" stroke-width="1.4" opacity=".55"/></pattern><filter id="s" x="-30%" y="-30%" width="170%" height="180%"><feDropShadow dx="7" dy="9" stdDeviation="0" flood-color="#08245c" flood-opacity=".12"/></filter><style>.ink{fill:#08245c}.blue{fill:#0757f7}.yellow{fill:#ffe27a}.paper{fill:#fffdf4}.line{stroke:#0757f7;stroke-width:5;stroke-linecap:round;stroke-linejoin:round;fill:none}.soft{stroke:#9fc0ee;stroke-width:3;stroke-linecap:round;fill:none}.label{font:700 23px "PingFang SC","Microsoft YaHei",sans-serif;fill:#08245c}.small{font:700 17px "PingFang SC","Microsoft YaHei",sans-serif;fill:#53627b}.num{font:800 22px Arial,sans-serif;fill:white}.tag{font:700 18px "PingFang SC","Microsoft YaHei",sans-serif;fill:#08245c}.title{font:800 56px "PingFang SC","Microsoft YaHei",sans-serif;fill:#08245c}.summary{font:800 25px "PingFang SC","Microsoft YaHei",sans-serif;fill:#0757f7}</style></defs>
  <rect width="1600" height="900" rx="28" fill="#fffaf0"/><rect x="18" y="18" width="1564" height="864" rx="28" fill="url(#g)" stroke="#bfd3ee" stroke-width="4"/>
  <text x="800" y="118" text-anchor="middle" class="title"><tspan class="blue">新流程：</tspan>AI 辅助同步文档维护</text><path d="M530 144 Q800 171 1070 143" stroke="#f4c529" stroke-width="8" fill="none" stroke-linecap="round"/>
  <g class="line" opacity=".86"><path d="M225 440H360"/><path d="M490 440H625"/><path d="M755 440H890"/><path d="M1020 440H1155"/><path d="M1285 440H1420"/></g>
  <g filter="url(#s)">
    <g transform="translate(72 220)"><circle cx="28" cy="30" r="25" class="blue"/><text x="28" y="38" text-anchor="middle" class="num">01</text><text x="66" y="38" class="label">原始材料统一输入</text><path d="M42 105h145v128H42z" class="paper" stroke="#0757f7" stroke-width="4"/><path d="M65 88h145v128H65z" class="yellow" stroke="#0757f7" stroke-width="4"/><path d="M88 121h93M88 150h72M88 179h91" class="soft"/><path d="M18 171h43M46 153l17 18-17 18" class="line"/><rect x="48" y="275" width="176" height="48" rx="24" class="yellow" stroke="#0757f7" stroke-width="3"/><text x="136" y="306" text-anchor="middle" class="tag">材料归集</text></g>
    <g transform="translate(337 220)"><circle cx="28" cy="30" r="25" class="blue"/><text x="28" y="38" text-anchor="middle" class="num">02</text><text x="66" y="38" class="label">AI 提取字段规则</text><rect x="58" y="92" width="142" height="130" rx="36" class="paper" stroke="#0757f7" stroke-width="5"/><circle cx="99" cy="145" r="8" class="blue"/><circle cx="159" cy="145" r="8" class="blue"/><path d="M101 184q28 18 56 0M129 92V74M120 73h18" class="line"/><text x="129" y="205" text-anchor="middle" class="small">目标 · 规则 · 页面</text><rect x="48" y="275" width="176" height="48" rx="24" class="yellow" stroke="#0757f7" stroke-width="3"/><text x="136" y="306" text-anchor="middle" class="tag">字段提取</text></g>
    <g transform="translate(602 220)"><circle cx="28" cy="30" r="25" class="blue"/><text x="28" y="38" text-anchor="middle" class="num">03</text><text x="66" y="38" class="label">按文档结构补全</text><rect x="42" y="90" width="174" height="150" rx="14" class="paper" stroke="#0757f7" stroke-width="4"/><path d="M42 128h174M42 166h174M42 204h174M100 90v150" class="soft"/><path d="M119 111l8 8 14-18M119 149l8 8 14-18M119 187l8 8 14-18M119 225l8 8 14-18" class="line"/><rect x="48" y="275" width="176" height="48" rx="24" class="yellow" stroke="#0757f7" stroke-width="3"/><text x="136" y="306" text-anchor="middle" class="tag">结构化补全</text></g>
    <g transform="translate(867 220)"><circle cx="28" cy="30" r="25" class="blue"/><text x="28" y="38" text-anchor="middle" class="num">04</text><text x="66" y="38" class="label">标记确认与风险</text><path d="M44 94h172v143H44z" class="paper" stroke="#0757f7" stroke-width="4"/><rect x="65" y="119" width="110" height="31" rx="15" class="yellow" stroke="#0757f7" stroke-width="3"/><rect x="65" y="164" width="132" height="31" rx="15" fill="#e7f1ff" stroke="#0757f7" stroke-width="3"/><text x="120" y="141" text-anchor="middle" class="small">待确认</text><text x="131" y="186" text-anchor="middle" class="small">风险提示</text><rect x="48" y="275" width="176" height="48" rx="24" class="yellow" stroke="#0757f7" stroke-width="3"/><text x="136" y="306" text-anchor="middle" class="tag">缺口显性</text></g>
    <g transform="translate(1132 220)"><circle cx="28" cy="30" r="25" class="blue"/><text x="28" y="38" text-anchor="middle" class="num">05</text><text x="66" y="38" class="label">完整一致性检查</text><rect x="54" y="92" width="150" height="148" rx="14" class="paper" stroke="#0757f7" stroke-width="4"/><path d="M79 126l10 10 18-24M79 168l10 10 18-24M79 210l10 10 18-24" class="line"/><path d="M121 126h58M121 168h58M121 210h58" class="soft"/><rect x="48" y="275" width="176" height="48" rx="24" class="yellow" stroke="#0757f7" stroke-width="3"/><text x="136" y="306" text-anchor="middle" class="tag">自动检查</text></g>
    <g transform="translate(1397 220)"><circle cx="28" cy="30" r="25" class="blue"/><text x="28" y="38" text-anchor="middle" class="num">06</text><text x="66" y="38" class="label">人工确认定稿</text><rect x="30" y="94" width="150" height="146" rx="14" class="paper" stroke="#0757f7" stroke-width="4"/><path d="M58 130h95M58 158h95M58 186h62" class="soft"/><circle cx="150" cy="203" r="31" fill="#54c895" stroke="#0757f7" stroke-width="4"/><path d="M134 204l11 11 23-28" stroke="white" stroke-width="7" fill="none" stroke-linecap="round"/><rect x="25" y="275" width="170" height="48" rx="24" class="yellow" stroke="#0757f7" stroke-width="3"/><text x="110" y="306" text-anchor="middle" class="tag">人工拍板</text></g>
  </g>
  <g transform="translate(340 660)"><rect width="250" height="62" rx="31" class="paper" stroke="#0757f7" stroke-width="3"/><text x="125" y="40" text-anchor="middle" class="summary">结构更统一</text></g><g transform="translate(675 660)"><rect width="250" height="62" rx="31" class="paper" stroke="#0757f7" stroke-width="3"/><text x="125" y="40" text-anchor="middle" class="summary">缺口更清楚</text></g><g transform="translate(1010 660)"><rect width="250" height="62" rx="31" class="paper" stroke="#0757f7" stroke-width="3"/><text x="125" y="40" text-anchor="middle" class="summary">更新更稳定</text></g>
  <rect x="505" y="758" width="590" height="64" rx="32" class="yellow" stroke="#0757f7" stroke-width="4"/><text x="800" y="799" text-anchor="middle" class="summary">AI 整理与检查 · 产品经理判断与定稿</text>
</svg>
