<svg xmlns="http://www.w3.org/2000/svg" width="1600" height="900" viewBox="0 0 1600 900">
  <defs><pattern id="g" width="38" height="38" patternUnits="userSpaceOnUse"><path d="M38 0H0V38" fill="none" stroke="#b9d2ef" stroke-width="1.4" opacity=".55"/></pattern><filter id="s" x="-30%" y="-30%" width="170%" height="180%"><feDropShadow dx="7" dy="9" stdDeviation="0" flood-color="#08245c" flood-opacity=".12"/></filter><style>.blue{fill:#0757f7}.yellow{fill:#ffe27a}.paper{fill:#fffdf4}.green{fill:#54c895}.line{stroke:#0757f7;stroke-width:5;stroke-linecap:round;stroke-linejoin:round;fill:none}.soft{stroke:#9fc0ee;stroke-width:3;stroke-linecap:round;fill:none}.label{font:700 22px "PingFang SC","Microsoft YaHei",sans-serif;fill:#08245c}.small{font:700 17px "PingFang SC","Microsoft YaHei",sans-serif;fill:#53627b}.num{font:800 22px Arial,sans-serif;fill:white}.tag{font:700 18px "PingFang SC","Microsoft YaHei",sans-serif;fill:#08245c}.title{font:800 56px "PingFang SC","Microsoft YaHei",sans-serif;fill:#08245c}.summary{font:800 25px "PingFang SC","Microsoft YaHei",sans-serif;fill:#0757f7}</style></defs>
  <rect width="1600" height="900" rx="28" fill="#fffaf0"/><rect x="18" y="18" width="1564" height="864" rx="28" fill="url(#g)" stroke="#bfd3ee" stroke-width="4"/>
  <text x="800" y="118" text-anchor="middle" class="title"><tspan class="blue">新流程：</tspan>AI 辅助原型交付</text><path d="M575 144 Q800 171 1025 143" stroke="#f4c529" stroke-width="8" fill="none" stroke-linecap="round"/>
  <g class="line" opacity=".86"><path d="M225 440H360"/><path d="M490 440H625"/><path d="M755 440H890"/><path d="M1020 440H1155"/><path d="M1285 440H1420"/></g>
  <g filter="url(#s)">
    <g transform="translate(72 220)"><circle cx="28" cy="30" r="25" class="blue"/><text x="28" y="38" text-anchor="middle" class="num">01</text><text x="66" y="38" class="label">模板收集 / 提纲开会</text><rect x="38" y="91" width="172" height="151" rx="14" class="paper" stroke="#0757f7" stroke-width="4"/><path d="M66 126l9 9 16-21M66 166l9 9 16-21M66 206l9 9 16-21" class="line"/><path d="M105 126h76M105 166h76M105 206h76" class="soft"/><rect x="48" y="275" width="176" height="48" rx="24" class="yellow" stroke="#0757f7" stroke-width="3"/><text x="136" y="306" text-anchor="middle" class="tag">框架固定</text></g>
    <g transform="translate(337 220)"><circle cx="28" cy="30" r="25" class="blue"/><text x="28" y="38" text-anchor="middle" class="num">02</text><text x="66" y="38" class="label">录屏记录输入 AI</text><rect x="40" y="96" width="176" height="122" rx="15" class="paper" stroke="#0757f7" stroke-width="4"/><circle cx="74" cy="122" r="8" fill="#ff6d5f"/><text x="91" y="129" class="small">REC</text><circle cx="128" cy="162" r="31" class="blue"/><path d="M119 146l27 16-27 16z" fill="white"/><path d="M74 235h108" class="line"/><rect x="48" y="275" width="176" height="48" rx="24" class="yellow" stroke="#0757f7" stroke-width="3"/><text x="136" y="306" text-anchor="middle" class="tag">结构化输入</text></g>
    <g transform="translate(602 220)"><circle cx="28" cy="30" r="25" class="blue"/><text x="28" y="38" text-anchor="middle" class="num">03</text><text x="66" y="38" class="label">AI 整理结构化需求</text><rect x="58" y="92" width="142" height="130" rx="36" class="paper" stroke="#0757f7" stroke-width="5"/><circle cx="99" cy="145" r="8" class="blue"/><circle cx="159" cy="145" r="8" class="blue"/><path d="M101 184q28 18 56 0M129 92V74M120 73h18" class="line"/><text x="129" y="205" text-anchor="middle" class="small">目标 · 规则 · 页面</text><rect x="48" y="275" width="176" height="48" rx="24" class="yellow" stroke="#0757f7" stroke-width="3"/><text x="136" y="306" text-anchor="middle" class="tag">缺口前置</text></g>
    <g transform="translate(867 220)"><circle cx="28" cy="30" r="25" class="blue"/><text x="28" y="38" text-anchor="middle" class="num">04</text><text x="66" y="38" class="label">提示词 / 原型初稿</text><path d="M38 103h76v126H38z" class="yellow" stroke="#0757f7" stroke-width="4"/><path d="M101 87h119v151H101z" class="paper" stroke="#0757f7" stroke-width="4"/><path d="M119 119h83M119 145h83" class="soft"/><rect x="120" y="170" width="34" height="44" rx="5" fill="#e7f1ff" stroke="#0757f7" stroke-width="3"/><rect x="162" y="170" width="40" height="18" rx="5" class="yellow" stroke="#0757f7" stroke-width="3"/><rect x="162" y="196" width="40" height="18" rx="5" class="paper" stroke="#0757f7" stroke-width="3"/><rect x="48" y="275" width="176" height="48" rx="24" class="yellow" stroke="#0757f7" stroke-width="3"/><text x="136" y="306" text-anchor="middle" class="tag">快速出稿</text></g>
    <g transform="translate(1132 220)"><circle cx="28" cy="30" r="25" class="blue"/><text x="28" y="38" text-anchor="middle" class="num">05</text><text x="66" y="38" class="label">人工判断与调整</text><circle cx="128" cy="153" r="68" class="paper" stroke="#0757f7" stroke-width="4"/><path d="M91 154l22 22 51-62" class="line"/><path d="M176 201l37 32M195 201l-19 19" class="line"/><rect x="48" y="275" width="176" height="48" rx="24" class="yellow" stroke="#0757f7" stroke-width="3"/><text x="136" y="306" text-anchor="middle" class="tag">人工拍板</text></g>
    <g transform="translate(1397 220)"><circle cx="28" cy="30" r="25" class="blue"/><text x="28" y="38" text-anchor="middle" class="num">06</text><text x="66" y="38" class="label">确认 / 原型交付</text><rect x="30" y="94" width="150" height="146" rx="14" class="paper" stroke="#0757f7" stroke-width="4"/><path d="M58 130h95M58 158h95M58 186h62" class="soft"/><circle cx="150" cy="203" r="31" class="green" stroke="#0757f7" stroke-width="4"/><path d="M134 204l11 11 23-28" stroke="white" stroke-width="7" fill="none" stroke-linecap="round"/><rect x="25" y="275" width="170" height="48" rx="24" class="yellow" stroke="#0757f7" stroke-width="3"/><text x="110" y="306" text-anchor="middle" class="tag">确认更快</text></g>
  </g>
  <g transform="translate(340 660)"><rect width="250" height="62" rx="31" class="paper" stroke="#0757f7" stroke-width="3"/><text x="125" y="40" text-anchor="middle" class="summary">结构更清晰</text></g><g transform="translate(675 660)"><rect width="250" height="62" rx="31" class="paper" stroke="#0757f7" stroke-width="3"/><text x="125" y="40" text-anchor="middle" class="summary">初稿更快速</text></g><g transform="translate(1010 660)"><rect width="250" height="62" rx="31" class="paper" stroke="#0757f7" stroke-width="3"/><text x="125" y="40" text-anchor="middle" class="summary">确认更高效</text></g>
  <rect x="470" y="758" width="660" height="64" rx="32" class="yellow" stroke="#0757f7" stroke-width="4"/><text x="800" y="799" text-anchor="middle" class="summary">AI 负责整理初稿 · 产品经理负责判断拍板</text>
</svg>
