<svg xmlns="http://www.w3.org/2000/svg" width="1600" height="900" viewBox="0 0 1600 900">
  <defs><pattern id="g" width="38" height="38" patternUnits="userSpaceOnUse"><path d="M38 0H0V38" fill="none" stroke="#b9d2ef" stroke-width="1.4" opacity=".55"/></pattern><filter id="s" x="-30%" y="-30%" width="170%" height="180%"><feDropShadow dx="7" dy="9" stdDeviation="0" flood-color="#08245c" flood-opacity=".12"/></filter><style>.blue{fill:#0757f7}.yellow{fill:#ffe27a}.paper{fill:#fffdf4}.line{stroke:#0757f7;stroke-width:5;stroke-linecap:round;stroke-linejoin:round;fill:none}.soft{stroke:#9fc0ee;stroke-width:3;stroke-linecap:round;fill:none}.label{font:700 23px "PingFang SC","Microsoft YaHei",sans-serif;fill:#08245c}.small{font:700 17px "PingFang SC","Microsoft YaHei",sans-serif;fill:#53627b}.num{font:800 22px Arial,sans-serif;fill:white}.tag{font:700 18px "PingFang SC","Microsoft YaHei",sans-serif;fill:#08245c}.title{font:800 56px "PingFang SC","Microsoft YaHei",sans-serif;fill:#08245c}.summary{font:800 25px "PingFang SC","Microsoft YaHei",sans-serif;fill:#08245c}</style></defs>
  <rect width="1600" height="900" rx="28" fill="#fffaf0"/><rect x="18" y="18" width="1564" height="864" rx="28" fill="url(#g)" stroke="#bfd3ee" stroke-width="4"/>
  <text x="800" y="118" text-anchor="middle" class="title"><tspan class="blue">旧流程：</tspan>多活动靠人工追踪</text><path d="M565 144 Q800 171 1035 143" stroke="#f4c529" stroke-width="8" fill="none" stroke-linecap="round"/>
  <g class="line" opacity=".85"><path d="M225 440H360"/><path d="M490 440H625"/><path d="M755 440H890"/><path d="M1020 440H1155"/><path d="M1285 440H1420"/></g>
  <g filter="url(#s)">
    <g transform="translate(72 220)"><circle cx="28" cy="30" r="25" class="blue"/><text x="28" y="38" text-anchor="middle" class="num">01</text><text x="66" y="38" class="label">多个活动同时进入</text><path d="M35 114h74v104H35zM92 92h74v104H92zM149 120h74v104h-74z" class="paper" stroke="#0757f7" stroke-width="4"/><text x="72" y="171" text-anchor="middle" class="label">A</text><text x="129" y="150" text-anchor="middle" class="label">B</text><text x="186" y="181" text-anchor="middle" class="label">C</text><rect x="48" y="275" width="176" height="48" rx="24" class="yellow" stroke="#0757f7" stroke-width="3"/><text x="136" y="306" text-anchor="middle" class="tag">同时推进</text></g>
    <g transform="translate(337 220)"><circle cx="28" cy="30" r="25" class="blue"/><text x="28" y="38" text-anchor="middle" class="num">02</text><text x="66" y="38" class="label">信息散落</text><path d="M42 105q0-15 15-15h115q15 0 15 15v54q0 15-15 15H94l-26 22 6-22H57q-15 0-15-15z" class="paper" stroke="#0757f7" stroke-width="4"/><path d="M81 158h135v86H81z" class="yellow" stroke="#0757f7" stroke-width="4"/><path d="M103 188h88M103 215h64" class="soft"/><rect x="48" y="275" width="176" height="48" rx="24" class="yellow" stroke="#0757f7" stroke-width="3"/><text x="136" y="306" text-anchor="middle" class="tag">状态分散</text></g>
    <g transform="translate(602 220)"><circle cx="28" cy="30" r="25" class="blue"/><text x="28" y="38" text-anchor="middle" class="num">03</text><text x="66" y="38" class="label">靠人工记进度</text><circle cx="129" cy="152" r="68" class="paper" stroke="#0757f7" stroke-width="4"/><path d="M92 144q37-58 75 0M91 168q38 35 76 0" class="soft"/><text x="129" y="162" text-anchor="middle" class="label">A B C ?</text><path d="M172 91l28-23M188 119l35-3" class="line"/><rect x="48" y="275" width="176" height="48" rx="24" class="yellow" stroke="#0757f7" stroke-width="3"/><text x="136" y="306" text-anchor="middle" class="tag">靠人记</text></g>
    <g transform="translate(867 220)"><circle cx="28" cy="30" r="25" class="blue"/><text x="28" y="38" text-anchor="middle" class="num">04</text><text x="66" y="38" class="label">待确认混在一起</text><g class="paper" stroke="#0757f7" stroke-width="4"><path d="M46 102l79 8-9 75-79-8z"/><path d="M113 91l84 17-15 76-84-17z" fill="#ffe27a"/><path d="M75 160l101 10-8 69-101-10z"/></g><text x="78" y="147" class="label">A?</text><text x="137" y="144" class="label">C?</text><text x="103" y="205" class="label">B?</text><rect x="48" y="275" width="176" height="48" rx="24" class="yellow" stroke="#0757f7" stroke-width="3"/><text x="136" y="306" text-anchor="middle" class="tag">问题混杂</text></g>
    <g transform="translate(1132 220)"><circle cx="28" cy="30" r="25" class="blue"/><text x="28" y="38" text-anchor="middle" class="num">05</text><text x="66" y="38" class="label">时间风险遗漏</text><circle cx="128" cy="158" r="70" class="paper" stroke="#0757f7" stroke-width="4"/><path d="M128 105v55l38 25" class="line"/><path d="M84 91l17 20M172 91l-17 20" class="line"/><path d="M186 194l24 42h-48z" class="yellow" stroke="#0757f7" stroke-width="4"/><text x="186" y="228" text-anchor="middle" class="label">!</text><rect x="48" y="275" width="176" height="48" rx="24" class="yellow" stroke="#0757f7" stroke-width="3"/><text x="136" y="306" text-anchor="middle" class="tag">风险后置</text></g>
    <g transform="translate(1397 220)"><circle cx="28" cy="30" r="25" class="blue"/><text x="28" y="38" text-anchor="middle" class="num">06</text><text x="66" y="38" class="label">追问与救火</text><path d="M28 100q0-14 14-14h112q14 0 14 14v56q0 14-14 14H85l-22 21 4-21H42q-14 0-14-14z" class="paper" stroke="#0757f7" stroke-width="4"/><text x="98" y="137" text-anchor="middle" class="label">进度呢？</text><path d="M105 184l40 2-9 20 24 16-43 17-4-25-24-7z" class="yellow" stroke="#0757f7" stroke-width="4"/><rect x="25" y="275" width="170" height="48" rx="24" class="yellow" stroke="#0757f7" stroke-width="3"/><text x="110" y="306" text-anchor="middle" class="tag">被动救火</text></g>
  </g>
  <path d="M330 650 Q800 745 1270 650" class="soft" stroke-dasharray="12 11"/><rect x="470" y="715" width="660" height="72" rx="36" class="yellow" stroke="#0757f7" stroke-width="4" filter="url(#s)"/><text x="800" y="760" text-anchor="middle" class="summary">状态分散 · 优先级模糊 · 风险容易后置</text>
</svg>
