<svg xmlns="http://www.w3.org/2000/svg" width="1600" height="900" viewBox="0 0 1600 900">
  <defs>
    <pattern id="grid" width="38" height="38" patternUnits="userSpaceOnUse"><path d="M38 0H0V38" fill="none" stroke="#b9d2ef" stroke-width="1.4" opacity=".55"/></pattern>
    <filter id="shadow" x="-30%" y="-30%" width="170%" height="180%"><feDropShadow dx="7" dy="9" stdDeviation="0" flood-color="#08245c" flood-opacity=".12"/></filter>
    <style>
      .ink{fill:#08245c}.blue{fill:#0757f7}.yellow{fill:#ffe27a}.paper{fill:#fffdf4}.line{stroke:#0757f7;stroke-width:5;stroke-linecap:round;stroke-linejoin:round;fill:none}.soft{stroke:#9fc0ee;stroke-width:3;stroke-linecap:round;fill:none}.label{font:700 24px "PingFang SC","Microsoft YaHei",sans-serif;fill:#08245c}.small{font:700 18px "PingFang SC","Microsoft YaHei",sans-serif;fill:#53627b}.num{font:800 22px Arial,sans-serif;fill:white}.tag{font:700 18px "PingFang SC","Microsoft YaHei",sans-serif;fill:#08245c}.title{font:800 58px "PingFang SC","Microsoft YaHei",sans-serif;fill:#08245c}.summary{font:800 25px "PingFang SC","Microsoft YaHei",sans-serif;fill:#08245c}
    </style>
  </defs>
  <rect width="1600" height="900" rx="28" fill="#fffaf0"/>
  <rect x="18" y="18" width="1564" height="864" rx="28" fill="url(#grid)" stroke="#bfd3ee" stroke-width="4"/>
  <text x="800" y="118" text-anchor="middle" class="title"><tspan class="blue">旧流程：</tspan>手动维护同步文档</text>
  <path d="M560 144 Q800 171 1040 143" stroke="#f4c529" stroke-width="8" fill="none" stroke-linecap="round"/>
  <g class="line" opacity=".85"><path d="M225 440H360"/><path d="M490 440H625"/><path d="M755 440H890"/><path d="M1020 440H1155"/><path d="M1285 440H1420"/></g>
  <g filter="url(#shadow)">
    <g transform="translate(72 220) rotate(-2 110 220)"><circle cx="28" cy="30" r="25" class="blue"/><text x="28" y="38" text-anchor="middle" class="num">01</text><text x="66" y="38" class="label">信息散落多处</text><path d="M30 110l80-20 18 90-80 20z" class="paper" stroke="#0757f7" stroke-width="4"/><path d="M90 135l90-12 12 92-90 12z" class="yellow" stroke="#0757f7" stroke-width="4"/><path d="M54 138h48M58 157h43M113 154h54M114 175h47" class="soft"/><rect x="48" y="275" width="176" height="48" rx="24" class="yellow" stroke="#0757f7" stroke-width="3"/><text x="136" y="306" text-anchor="middle" class="tag">来源分散</text></g>
    <g transform="translate(337 220) rotate(1 110 220)"><circle cx="28" cy="30" r="25" class="blue"/><text x="28" y="38" text-anchor="middle" class="num">02</text><text x="66" y="38" class="label">手动复制整理</text><rect x="34" y="95" width="156" height="110" rx="13" class="paper" stroke="#0757f7" stroke-width="4"/><rect x="63" y="126" width="156" height="110" rx="13" class="yellow" stroke="#0757f7" stroke-width="4"/><path d="M94 155h91M94 178h72M94 201h99" class="soft"/><path d="M51 230c42 35 91 34 132 3" class="line"/><path d="M174 223l17 11-14 15" class="line"/><rect x="48" y="275" width="176" height="48" rx="24" class="yellow" stroke="#0757f7" stroke-width="3"/><text x="136" y="306" text-anchor="middle" class="tag">重复搬运</text></g>
    <g transform="translate(602 220) rotate(-1 110 220)"><circle cx="28" cy="30" r="25" class="blue"/><text x="28" y="38" text-anchor="middle" class="num">03</text><text x="66" y="38" class="label">逐字段补内容</text><rect x="42" y="90" width="174" height="150" rx="14" class="paper" stroke="#0757f7" stroke-width="4"/><path d="M42 128h174M42 166h174M42 204h174M100 90v150" class="soft"/><text x="67" y="117" class="small">目标</text><text x="119" y="156" class="small">?</text><text x="119" y="194" class="small">?</text><text x="119" y="232" class="small">?</text><rect x="48" y="275" width="176" height="48" rx="24" class="yellow" stroke="#0757f7" stroke-width="3"/><text x="136" y="306" text-anchor="middle" class="tag">人工补全</text></g>
    <g transform="translate(867 220) rotate(1.5 110 220)"><circle cx="28" cy="30" r="25" class="blue"/><text x="28" y="38" text-anchor="middle" class="num">04</text><text x="66" y="38" class="label">反馈后继续改</text><g class="paper" stroke="#0757f7" stroke-width="4"><path d="M42 111q0-18 18-18h118q18 0 18 18v58q0 18-18 18H92l-27 24 6-24H60q-18 0-18-18z"/><path d="M76 164q0-18 18-18h112q18 0 18 18v58q0 18-18 18h-84l-25 20 5-20h-8q-18 0-18-18z" fill="#ffe27a"/></g><path d="M102 122h58M112 181h69" class="soft"/><rect x="48" y="275" width="176" height="48" rx="24" class="yellow" stroke="#0757f7" stroke-width="3"/><text x="136" y="306" text-anchor="middle" class="tag">来回更新</text></g>
    <g transform="translate(1132 220) rotate(-1.5 110 220)"><circle cx="28" cy="30" r="25" class="blue"/><text x="28" y="38" text-anchor="middle" class="num">05</text><text x="66" y="38" class="label">版本字段冲突</text><path d="M44 112h158v118H44z" class="paper" stroke="#0757f7" stroke-width="4"/><path d="M64 92h158v118H64z" class="yellow" stroke="#0757f7" stroke-width="4"/><text x="84" y="126" class="label">V1</text><text x="146" y="154" class="label">V2</text><text x="95" y="191" class="small">最终版 2</text><path d="M92 134l74 64M166 134l-74 64" stroke="#0757f7" stroke-width="5" opacity=".45"/><rect x="48" y="275" width="176" height="48" rx="24" class="yellow" stroke="#0757f7" stroke-width="3"/><text x="136" y="306" text-anchor="middle" class="tag">版本混乱</text></g>
    <g transform="translate(1397 220) rotate(1 90 220)"><circle cx="28" cy="30" r="25" class="blue"/><text x="28" y="38" text-anchor="middle" class="num">06</text><text x="66" y="38" class="label">提交文档</text><rect x="30" y="94" width="150" height="146" rx="14" class="paper" stroke="#0757f7" stroke-width="4"/><path d="M58 130h95M58 158h95M58 186h62" class="soft"/><circle cx="151" cy="204" r="28" class="yellow" stroke="#0757f7" stroke-width="4"/><text x="151" y="214" text-anchor="middle" class="label">?</text><rect x="25" y="275" width="170" height="48" rx="24" class="yellow" stroke="#0757f7" stroke-width="3"/><text x="110" y="306" text-anchor="middle" class="tag">仍需补漏</text></g>
  </g>
  <path d="M340 650 Q800 735 1260 650" class="soft" stroke-dasharray="12 11"/><rect x="495" y="715" width="610" height="72" rx="36" class="yellow" stroke="#0757f7" stroke-width="4" filter="url(#shadow)"/><text x="800" y="760" text-anchor="middle" class="summary">重复搬运 · 字段易漏 · 版本难统一</text>
</svg>
