<svg xmlns="http://www.w3.org/2000/svg" width="1600" height="900" viewBox="0 0 1600 900">
  <defs><pattern id="g" width="38" height="38" patternUnits="userSpaceOnUse"><path d="M38 0H0V38" fill="none" stroke="#b9d2ef" stroke-width="1.4" opacity=".55"/></pattern><filter id="s" x="-30%" y="-30%" width="170%" height="180%"><feDropShadow dx="7" dy="9" stdDeviation="0" flood-color="#08245c" flood-opacity=".12"/></filter><style>.blue{fill:#0757f7}.yellow{fill:#ffe27a}.paper{fill:#fffdf4}.green{fill:#54c895}.line{stroke:#0757f7;stroke-width:5;stroke-linecap:round;stroke-linejoin:round;fill:none}.soft{stroke:#9fc0ee;stroke-width:3;stroke-linecap:round;fill:none}.label{font:700 22px "PingFang SC","Microsoft YaHei",sans-serif;fill:#08245c}.small{font:700 17px "PingFang SC","Microsoft YaHei",sans-serif;fill:#53627b}.num{font:800 22px Arial,sans-serif;fill:white}.tag{font:700 18px "PingFang SC","Microsoft YaHei",sans-serif;fill:#08245c}.title{font:800 56px "PingFang SC","Microsoft YaHei",sans-serif;fill:#08245c}.summary{font:800 25px "PingFang SC","Microsoft YaHei",sans-serif;fill:#0757f7}</style></defs>
  <rect width="1600" height="900" rx="28" fill="#fffaf0"/><rect x="18" y="18" width="1564" height="864" rx="28" fill="url(#g)" stroke="#bfd3ee" stroke-width="4"/>
  <text x="800" y="118" text-anchor="middle" class="title"><tspan class="blue">新流程：</tspan>AI 辅助多活动并行</text><path d="M565 144 Q800 171 1035 143" stroke="#f4c529" stroke-width="8" fill="none" stroke-linecap="round"/>
  <g class="line" opacity=".86"><path d="M225 440H360"/><path d="M490 440H625"/><path d="M755 440H890"/><path d="M1020 440H1155"/><path d="M1285 440H1420"/></g>
  <g filter="url(#s)">
    <g transform="translate(72 220)"><circle cx="28" cy="30" r="25" class="blue"/><text x="28" y="38" text-anchor="middle" class="num">01</text><text x="66" y="38" class="label">各活动材料汇总</text><path d="M35 112h70v105H35zM92 92h70v105H92zM149 117h70v105h-70z" class="paper" stroke="#0757f7" stroke-width="4"/><text x="70" y="170" text-anchor="middle" class="label">A</text><text x="127" y="150" text-anchor="middle" class="label">B</text><text x="184" y="176" text-anchor="middle" class="label">C</text><path d="M42 238h169" class="line"/><rect x="48" y="275" width="176" height="48" rx="24" class="yellow" stroke="#0757f7" stroke-width="3"/><text x="136" y="306" text-anchor="middle" class="tag">材料汇总</text></g>
    <g transform="translate(337 220)"><circle cx="28" cy="30" r="25" class="blue"/><text x="28" y="38" text-anchor="middle" class="num">02</text><text x="66" y="38" class="label">AI 提取关键状态</text><rect x="58" y="92" width="142" height="130" rx="36" class="paper" stroke="#0757f7" stroke-width="5"/><circle cx="99" cy="145" r="8" class="blue"/><circle cx="159" cy="145" r="8" class="blue"/><path d="M101 184q28 18 56 0M129 92V74M120 73h18" class="line"/><text x="129" y="205" text-anchor="middle" class="small">阶段 · 截止 · 下一步</text><rect x="48" y="275" width="176" height="48" rx="24" class="yellow" stroke="#0757f7" stroke-width="3"/><text x="136" y="306" text-anchor="middle" class="tag">状态提取</text></g>
    <g transform="translate(602 220)"><circle cx="28" cy="30" r="25" class="blue"/><text x="28" y="38" text-anchor="middle" class="num">03</text><text x="66" y="38" class="label">生成进度总览</text><rect x="42" y="90" width="174" height="150" rx="14" class="paper" stroke="#0757f7" stroke-width="4"/><text x="61" y="126" class="small">A  开发中</text><text x="61" y="166" class="small">B  待确认</text><text x="61" y="206" class="small">C  测试中</text><circle cx="184" cy="120" r="9" class="green"/><circle cx="184" cy="160" r="9" class="yellow"/><circle cx="184" cy="200" r="9" class="blue"/><rect x="48" y="275" width="176" height="48" rx="24" class="yellow" stroke="#0757f7" stroke-width="3"/><text x="136" y="306" text-anchor="middle" class="tag">进度总览</text></g>
    <g transform="translate(867 220)"><circle cx="28" cy="30" r="25" class="blue"/><text x="28" y="38" text-anchor="middle" class="num">04</text><text x="66" y="38" class="label">分离确认与阻塞</text><path d="M44 94h172v143H44z" class="paper" stroke="#0757f7" stroke-width="4"/><rect x="64" y="119" width="126" height="32" rx="16" class="yellow" stroke="#0757f7" stroke-width="3"/><rect x="64" y="167" width="126" height="32" rx="16" fill="#e7f1ff" stroke="#0757f7" stroke-width="3"/><text x="127" y="141" text-anchor="middle" class="small">待确认 3</text><text x="127" y="189" text-anchor="middle" class="small">阻塞项 1</text><rect x="48" y="275" width="176" height="48" rx="24" class="yellow" stroke="#0757f7" stroke-width="3"/><text x="136" y="306" text-anchor="middle" class="tag">问题分离</text></g>
    <g transform="translate(1132 220)"><circle cx="28" cy="30" r="25" class="blue"/><text x="28" y="38" text-anchor="middle" class="num">05</text><text x="66" y="38" class="label">时间优先级排序</text><path d="M55 97v142M55 117h142M55 163h120M55 209h95" class="line"/><circle cx="98" cy="117" r="12" class="yellow" stroke="#0757f7" stroke-width="3"/><circle cx="132" cy="163" r="12" class="blue"/><circle cx="102" cy="209" r="12" class="green"/><text x="148" y="126" class="small">本周重点</text><rect x="48" y="275" width="176" height="48" rx="24" class="yellow" stroke="#0757f7" stroke-width="3"/><text x="136" y="306" text-anchor="middle" class="tag">优先级整理</text></g>
    <g transform="translate(1397 220)"><circle cx="28" cy="30" r="25" class="blue"/><text x="28" y="38" text-anchor="middle" class="num">06</text><text x="66" y="38" class="label">人工判断推进</text><rect x="30" y="94" width="150" height="146" rx="14" class="paper" stroke="#0757f7" stroke-width="4"/><path d="M58 130h95M58 158h95M58 186h62" class="soft"/><circle cx="150" cy="203" r="31" class="green" stroke="#0757f7" stroke-width="4"/><path d="M134 204l11 11 23-28" stroke="white" stroke-width="7" fill="none" stroke-linecap="round"/><rect x="25" y="275" width="170" height="48" rx="24" class="yellow" stroke="#0757f7" stroke-width="3"/><text x="110" y="306" text-anchor="middle" class="tag">聚焦推进</text></g>
  </g>
  <g transform="translate(340 660)"><rect width="250" height="62" rx="31" class="paper" stroke="#0757f7" stroke-width="3"/><text x="125" y="40" text-anchor="middle" class="summary">状态更清楚</text></g><g transform="translate(675 660)"><rect width="250" height="62" rx="31" class="paper" stroke="#0757f7" stroke-width="3"/><text x="125" y="40" text-anchor="middle" class="summary">重点更聚焦</text></g><g transform="translate(1010 660)"><rect width="250" height="62" rx="31" class="paper" stroke="#0757f7" stroke-width="3"/><text x="125" y="40" text-anchor="middle" class="summary">风险更早暴露</text></g>
  <rect x="495" y="758" width="610" height="64" rx="32" class="yellow" stroke="#0757f7" stroke-width="4"/><text x="800" y="799" text-anchor="middle" class="summary">AI 整理状态 · 产品经理判断与推进</text>
</svg>
